<svg width="25" height="25" viewBox="0 0 25 25" fill="none" xmlns="http://www.w3.org/2000/svg">
<path d="M14.285 12.2448L18.585 7.95481C18.7733 7.76651 18.8791 7.51112 18.8791 7.24481C18.8791 6.97851 18.7733 6.72312 18.585 6.53481C18.3967 6.34651 18.1413 6.24072 17.875 6.24072C17.6087 6.24072 17.3533 6.34651 17.165 6.53481L12.875 10.8348L8.585 6.53481C8.3967 6.34651 8.1413 6.24072 7.875 6.24072C7.6087 6.24072 7.3533 6.34651 7.165 6.53481C6.9767 6.72312 6.87091 6.97851 6.87091 7.24481C6.87091 7.51112 6.9767 7.76651 7.165 7.95481L11.465 12.2448L7.165 16.5348C7.07127 16.6278 6.99688 16.7384 6.94611 16.8602C6.89534 16.9821 6.8692 17.1128 6.8692 17.2448C6.8692 17.3768 6.89534 17.5075 6.94611 17.6294C6.99688 17.7513 7.07127 17.8618 7.165 17.9548C7.25796 18.0485 7.36856 18.1229 7.49042 18.1737C7.61228 18.2245 7.74299 18.2506 7.875 18.2506C8.00701 18.2506 8.13772 18.2245 8.25958 18.1737C8.38144 18.1229 8.49204 18.0485 8.585 17.9548L12.875 13.6548L17.165 17.9548C17.258 18.0485 17.3686 18.1229 17.4904 18.1737C17.6123 18.2245 17.743 18.2506 17.875 18.2506C18.007 18.2506 18.1377 18.2245 18.2596 18.1737C18.3814 18.1229 18.492 18.0485 18.585 17.9548C18.6787 17.8618 18.7531 17.7513 18.8039 17.6294C18.8547 17.5075 18.8808 17.3768 18.8808 17.2448C18.8808 17.1128 18.8547 16.9821 18.8039 16.8602C18.7531 16.7384 18.6787 16.6278 18.585 16.5348L14.285 12.2448Z" fill="#2E2C33"/>
</svg>
